<svg xmlns="http://www.w3.org/2000/svg" viewBox="0 0 900 1200">
  <defs>
    <linearGradient id="bg" x1="0%" y1="0%" x2="100%" y2="100%">
      <stop offset="0%" stop-color="#1b253b" />
      <stop offset="56%" stop-color="#2e5677" />
      <stop offset="100%" stop-color="#ffd27a" />
    </linearGradient>
  </defs>
  <rect width="900" height="1200" fill="#0a0d13" />
  <rect x="34" y="34" width="832" height="1132" rx="34" fill="url(#bg)" />
  <path d="M172 990c54-206 128-346 222-420 48-38 94-56 138-56 40 0 84 12 130 36 74 40 134 102 180 184v256Z" fill="#141a23" opacity="0.88" />
  <circle cx="462" cy="334" r="104" fill="#fff0c4" opacity="0.84" />
  <path d="M420 220h82l44 100-46 18-40-56-38 56-46-18Z" fill="#ffe1a2" opacity="0.72" />
  <path d="M666 238 770 450l-44 20-108-210Z" fill="#d7f7ff" opacity="0.74" />
  <text x="94" y="950" fill="#f8f1da" font-family="Baskerville, serif" font-size="96">Kael Strand</text>
  <text x="98" y="1028" fill="#d9edf4" font-family="Arial, sans-serif" font-size="29" letter-spacing="8">STORM DUELIST</text>
</svg>
