<svg xmlns="http://www.w3.org/2000/svg" viewBox="0 0 900 1200">
  <defs>
    <linearGradient id="bg" x1="0%" y1="0%" x2="100%" y2="100%">
      <stop offset="0%" stop-color="#241323" />
      <stop offset="58%" stop-color="#6f2d58" />
      <stop offset="100%" stop-color="#f5d8ab" />
    </linearGradient>
  </defs>
  <rect width="900" height="1200" fill="#0e0c12" />
  <rect x="34" y="34" width="832" height="1132" rx="34" fill="url(#bg)" />
  <path d="M154 1016c60-150 110-260 150-332 76-132 170-198 282-198 74 0 144 28 210 84l76 446Z" fill="#170f18" opacity="0.9" />
  <circle cx="460" cy="318" r="98" fill="#fff2d8" opacity="0.82" />
  <path d="M222 278 458 124l220 154-42 64-178-118-190 124Z" fill="#ffe2b5" opacity="0.48" />
  <path d="M312 650c94-34 190-34 288 0" fill="none" stroke="#f9e3c2" stroke-width="22" stroke-linecap="round" opacity="0.5" />
  <text x="94" y="952" fill="#fff0d9" font-family="Baskerville, serif" font-size="96">Vera Solace</text>
  <text x="98" y="1030" fill="#f3ceb2" font-family="Arial, sans-serif" font-size="28" letter-spacing="8">CATHEDRAL RESONANT</text>
</svg>
